<?xml version="1.0" encoding="UTF-8" standalone="no"?>
<svg
   xmlns:dc="http://purl.org/dc/elements/1.1/"
   xmlns:cc="http://creativecommons.org/ns#"
   xmlns:rdf="http://www.w3.org/1999/02/22-rdf-syntax-ns#"
   xmlns:svg="http://www.w3.org/2000/svg"
   xmlns="http://www.w3.org/2000/svg"
   xmlns:sodipodi="http://sodipodi.sourceforge.net/DTD/sodipodi-0.dtd"
   xmlns:inkscape="http://www.inkscape.org/namespaces/inkscape"
   height="16"
   viewBox="0 0 16 16"
   width="16"
   id="svg2"
   version="1.1"
   inkscape:version="0.91 r13725"
   sodipodi:docname="icon-git.svg">
  <metadata
     id="metadata10">
    <rdf:RDF>
      <cc:Work
         rdf:about="">
        <dc:format>image/svg+xml</dc:format>
        <dc:type
           rdf:resource="http://purl.org/dc/dcmitype/StillImage" />
      </cc:Work>
    </rdf:RDF>
  </metadata>
  <defs
     id="defs8" />
  <sodipodi:namedview
     pagecolor="#ffffff"
     bordercolor="#666666"
     borderopacity="1"
     objecttolerance="10"
     gridtolerance="10"
     guidetolerance="10"
     inkscape:pageopacity="0"
     inkscape:pageshadow="2"
     inkscape:window-width="1440"
     inkscape:window-height="851"
     id="namedview6"
     showgrid="false"
     inkscape:zoom="16.857143"
     inkscape:cx="6.0609352"
     inkscape:cy="10.340023"
     inkscape:window-x="0"
     inkscape:window-y="25"
     inkscape:window-maximized="1"
     inkscape:current-layer="svg2" />
  <path
     d="m 5.6296762,12.685181 q 0,-0.819338 -1.351909,-0.819338 -1.294555,0 -1.294555,0.852112 0,0.827531 1.409262,0.827531 1.237202,0 1.237202,-0.860305 z M 5.1462652,6.499175 q 0,-0.499796 -0.245801,-0.835725 -0.245802,-0.335929 -0.729211,-0.335929 -1.01598,0 -1.01598,1.188041 0,1.106107 1.01598,1.106107 0.975012,0 0.975012,-1.122494 z m 2.204021,-2.654656 0,1.655064 q -0.294962,0.09832 -0.647277,0.180254 0.131094,0.352316 0.131094,0.688244 0,1.04056 -0.598118,1.773868 -0.598116,0.733308 -1.614096,0.9217565 -0.327735,0.06555 -0.487506,0.221221 -0.159771,0.155674 -0.159771,0.4752163 0,0.2539952 0.184351,0.4219592 0.184351,0.167965 0.475216,0.262189 0.290866,0.09422 0.643181,0.180254 0.352316,0.08603 0.704631,0.208932 0.352316,0.122901 0.64318,0.307251 0.290866,0.184351 0.475217,0.524377 0.184351,0.340025 0.184351,0.807048 0,2.490788 -2.974199,2.490788 -0.565343,0 -1.065139,-0.102417 -0.499797,-0.102417 -0.950433,-0.335928 -0.450636,-0.233512 -0.716921,-0.671858 -0.266285,-0.438346 -0.266285,-1.044656 0,-1.351909 1.491196,-1.843511 l 0,-0.03277 q -0.548957,-0.335929 -0.548957,-1.0323662 0,-0.8930798 0.516183,-1.1224948 l 0,-0.03277 Q 2.1802612,8.547528 1.7910752,7.855187 1.4018892,7.162846 1.4018892,6.499182 q 0,-1.13888 0.778372,-1.896768 0.778371,-0.757888 1.925445,-0.757888 0.786565,0 1.458422,0.385089 0.802952,0 1.786158,-0.385089 z m 2.6054958,7.218372 -1.8189308,0 q 0.03277,-0.368702 0.03277,-1.0979132 l 0,-4.9897718 q 0,-0.770178 -0.03277,-1.048753 l 1.8189308,0 q -0.03277,0.270382 -0.03277,1.015979 l 0,5.0225458 q 0,0.7292112 0.03277,1.0979132 z m 4.924224,-1.8189315 0,1.6059035 q -0.58173,0.319542 -1.425649,0.319542 -0.50799,0 -0.876692,-0.163868 Q 12.208963,10.84167 12.004128,10.595868 11.799294,10.350067 11.68049,9.9567838 11.561685,9.5635015 11.528911,9.2029925 11.496141,8.842483 11.496141,8.359074 l 0,-2.875878 0.01639,0 0,-0.03277 q -0.05735,0 -0.155674,-0.0082 -0.09832,-0.0082 -0.147482,-0.0082 -0.17206,0 -0.483409,0.04916 l 0,-1.556743 0.786565,0 0,-0.622697 q 0,-0.442443 -0.04916,-0.729211 l 1.859899,0 q -0.04916,0.335929 -0.04916,1.351908 l 1.401068,0 0,1.556743 q -0.1229,0 -0.356412,-0.01639 -0.233511,-0.01639 -0.348219,-0.01639 l -0.696437,0 0,2.990585 q 0,1.0733335 0.712824,1.0733335 0.499796,0 0.893079,-0.270381 z M 10.160617,1.484824 q 0,0.475217 -0.3195418,0.831629 -0.319542,0.356412 -0.786565,0.356412 -0.475217,0 -0.802952,-0.356412 -0.327735,-0.356412 -0.327735,-0.831629 0,-0.483409 0.323639,-0.84391803 0.323638,-0.360509 0.807048,-0.360509 0.475216,0 0.790661,0.364606 Q 10.160617,1.009608 10.160617,1.484824 Z"
     id="path4"
     style="fill:#ffffff"
     inkscape:connector-curvature="0" />
</svg>
