<?xml version="1.0" encoding="UTF-8" standalone="no"?>
<svg
   xmlns:sketch="http://www.bohemiancoding.com/sketch/ns"
   xmlns:dc="http://purl.org/dc/elements/1.1/"
   xmlns:cc="http://creativecommons.org/ns#"
   xmlns:rdf="http://www.w3.org/1999/02/22-rdf-syntax-ns#"
   xmlns:svg="http://www.w3.org/2000/svg"
   xmlns="http://www.w3.org/2000/svg"
   xmlns:sodipodi="http://sodipodi.sourceforge.net/DTD/sodipodi-0.dtd"
   xmlns:inkscape="http://www.inkscape.org/namespaces/inkscape"
   width="55"
   height="50"
   viewBox="0 0 1718.75 1562.5"
   version="1.1"
   id="svg2"
   inkscape:version="0.91 r13725"
   sodipodi:docname="icon-gitlab.svg">
  <metadata
     id="metadata41">
    <rdf:RDF>
      <cc:Work
         rdf:about="">
        <dc:format>image/svg+xml</dc:format>
        <dc:type
           rdf:resource="http://purl.org/dc/dcmitype/StillImage" />
        <dc:title>logo-square</dc:title>
      </cc:Work>
    </rdf:RDF>
  </metadata>
  <sodipodi:namedview
     pagecolor="#ffffff"
     bordercolor="#666666"
     borderopacity="1"
     objecttolerance="10"
     gridtolerance="10"
     guidetolerance="10"
     inkscape:pageopacity="0"
     inkscape:pageshadow="2"
     inkscape:window-width="1920"
     inkscape:window-height="1056"
     id="namedview39"
     showgrid="false"
     inkscape:zoom="0.921875"
     inkscape:cx="-303.00495"
     inkscape:cy="74.3769"
     inkscape:window-x="1440"
     inkscape:window-y="0"
     inkscape:window-maximized="1"
     inkscape:current-layer="svg2" />
  <!-- Generator: Sketch 3.2.2 (9983) - http://www.bohemiancoding.com/sketch -->
  <title
     id="title4">logo-square</title>
  <desc
     id="desc6">Created with Sketch.</desc>
  <defs
     id="defs8" />
  <g
     id="Page-1"
     sketch:type="MSPage"
     style="fill:none;fill-rule:evenodd;stroke:none;stroke-width:1"
     transform="matrix(3.44406,0,0,3.44406,-12.432162,-71.728526)">
    <g
       id="logo-square"
       sketch:type="MSArtboardGroup">
      <g
         id="logo-no-bg"
         sketch:type="MSLayerGroup"
         transform="translate(2,19)">
        <g
           id="g13"
           sketch:type="MSShapeGroup">
          <g
             id="gitlab_logo">
            <g
               id="g10"
               transform="matrix(1,0,0,-1,0,457.3333)">
              <g
                 id="g16">
                <g
                   id="g18-Clipped">
                  <g
                     id="g18">
                    <g
                       id="g20">
                      <g
                         id="Group"
                         transform="translate(0.666658,0.666658)">
                        <g
                           id="g44"
                           transform="translate(0.532,0.774933)"
                           style="fill:#fc6d26">
                          <path
                             d="m 491.99999,194.66666 -27.55867,84.81467 -54.61733,168.09733 c -2.80933,8.64799 -15.04533,8.64799 -17.856,0 l -54.61866,-168.09733 -181.36667,0 -54.62,168.09733 c -2.809329,8.64799 -15.045329,8.64799 -17.855995,0 L 28.889333,279.48133 1.332,194.66666 c -2.5146666,-7.736 0.24,-16.21066 6.8199998,-20.992 L 246.66533,0.38533332 485.17999,173.67466 c 6.58,4.78134 9.33333,13.256 6.82,20.992"
                             id="path46"
                             inkscape:connector-curvature="0" />
                        </g>
                        <g
                           id="g48"
                           transform="translate(156.19786,1.160267)"
                           style="fill:#e24329">
                          <path
                             d="m 90.999998,0 0,0 90.683992,279.09599 -181.36799003,0 L 90.999998,0 l 0,0 z"
                             id="path50"
                             inkscape:connector-curvature="0" />
                        </g>
                        <g
                           id="g56"
                           transform="translate(28.531199,1.1608)"
                           style="fill:#fc6d26">
                          <path
                             d="m 218.66666,0 -90.684,279.09466 -127.09199336,0 L 218.66666,0 l 0,0 z"
                             id="path58"
                             inkscape:connector-curvature="0" />
                        </g>
                        <g
                           id="g64"
                           transform="translate(0.088533,0.255867)"
                           style="fill:#fca326">
                          <path
                             d="m 29.333333,279.99999 0,0 -27.5586664,-84.81466 c -2.51333325,-7.736 0.24,-16.21067 6.8213332,-20.99067 L 247.10933,0.90533331 29.333333,279.99999 l 0,0 z"
                             id="path66"
                             inkscape:connector-curvature="0" />
                        </g>
                        <g
                           id="g72"
                           transform="translate(29.421866,280.25559)"
                           style="fill:#e24329">
                          <path
                             d="M 0,0 127.092,0 72.473331,168.09733 c -2.810666,8.64933 -15.046666,8.64933 -17.855999,0 L 0,0 0,0 Z"
                             id="path74"
                             inkscape:connector-curvature="0" />
                        </g>
                        <g
                           id="g76"
                           transform="translate(247.19786,1.1608)"
                           style="fill:#fc6d26">
                          <path
                             d="m 0,0 90.683998,279.09466 127.091992,0 L 0,0 0,0 Z"
                             id="path78"
                             inkscape:connector-curvature="0" />
                        </g>
                        <g
                           id="g80"
                           transform="translate(246.30706,0.255867)"
                           style="fill:#fca326">
                          <path
                             d="m 218.66666,279.99999 0,0 27.55867,-84.81466 c 2.51333,-7.736 -0.24,-16.21067 -6.82134,-20.99067 L 0.89066664,0.90533331 218.66666,279.99999 l 0,0 z"
                             id="path82"
                             inkscape:connector-curvature="0" />
                        </g>
                        <g
                           id="g84"
                           transform="translate(336.97372,280.25559)"
                           style="fill:#e24329">
                          <path
                             d="M 128,0 0.90799998,0 55.526665,168.09733 c 2.810667,8.64933 15.046667,8.64933 17.856,0 L 128,0 l 0,0 z"
                             id="path86"
                             inkscape:connector-curvature="0" />
                        </g>
                      </g>
                    </g>
                  </g>
                </g>
              </g>
            </g>
          </g>
        </g>
      </g>
    </g>
  </g>
</svg>
