<?xml version="1.0" encoding="UTF-8" standalone="no"?>
<svg
   xmlns:dc="http://purl.org/dc/elements/1.1/"
   xmlns:cc="http://creativecommons.org/ns#"
   xmlns:rdf="http://www.w3.org/1999/02/22-rdf-syntax-ns#"
   xmlns:svg="http://www.w3.org/2000/svg"
   xmlns="http://www.w3.org/2000/svg"
   xmlns:sodipodi="http://sodipodi.sourceforge.net/DTD/sodipodi-0.dtd"
   xmlns:inkscape="http://www.inkscape.org/namespaces/inkscape"
   viewBox="0 0 52 50"
   id="svg2"
   version="1.1"
   inkscape:version="0.91 r13725"
   sodipodi:docname="icon-github.svg"
   width="52"
   height="50">
  <metadata
     id="metadata10">
    <rdf:RDF>
      <cc:Work
         rdf:about="">
        <dc:format>image/svg+xml</dc:format>
        <dc:type
           rdf:resource="http://purl.org/dc/dcmitype/StillImage" />
        <dc:title></dc:title>
      </cc:Work>
    </rdf:RDF>
  </metadata>
  <defs
     id="defs8" />
  <sodipodi:namedview
     pagecolor="#ffffff"
     bordercolor="#666666"
     borderopacity="1"
     objecttolerance="10"
     gridtolerance="10"
     guidetolerance="10"
     inkscape:pageopacity="0"
     inkscape:pageshadow="2"
     inkscape:window-width="1920"
     inkscape:window-height="1056"
     id="namedview6"
     showgrid="false"
     inkscape:zoom="7.375"
     inkscape:cx="1.9588414"
     inkscape:cy="50.235141"
     inkscape:window-x="1440"
     inkscape:window-y="0"
     inkscape:window-maximized="1"
     inkscape:current-layer="svg2" />
  <path
     d="M 25.632955,6e-6 C 11.478674,6e-6 0,11.475366 0,25.636256 c 0,11.32342 7.343048,20.93248 17.530165,24.32157 1.281646,0.234534 1.750704,-0.55494 1.750704,-1.23539 0,-0.6078 -0.02313,-2.21977 -0.03303,-4.36025 -7.131642,1.5492 -8.634606,-3.43535 -8.634606,-3.43535 -1.166035,-2.95968 -2.847372,-3.74914 -2.847372,-3.74914 -2.328767,-1.58886 0.175071,-1.55912 0.175071,-1.55912 2.573205,0.18167 3.927523,2.64257 3.927523,2.64257 2.285825,3.91761 5.99864,2.78461 7.458662,2.13057 0.234527,-1.65821 0.895169,-2.78461 1.628485,-3.42543 -5.69144,-0.65074 -11.673565,-2.84737 -11.673565,-12.67114 0,-2.79782 0.997571,-5.08695 2.63927,-6.87729 -0.264258,-0.65073 -1.146216,-3.25697 0.251042,-6.7848 0,0 2.153697,-0.69037 7.049064,2.62935 2.044688,-0.57145 4.23472,-0.85553 6.414846,-0.86543 2.176818,0.01 4.370155,0.29398 6.418145,0.86213 4.895371,-3.31642 7.042458,-2.62936 7.042458,-2.62936 1.397258,3.52784 0.518605,6.13407 0.254347,6.7848 1.641695,1.79035 2.635964,4.07948 2.635964,6.8773 0,9.84689 -5.992033,12.01379 -11.703291,12.64802 0.921598,0.79276 1.740795,2.35518 1.740795,4.74672 0,3.42543 -0.03303,6.19022 -0.03303,7.03254 0,0.68707 0.462448,1.483154 1.763911,1.2321 C 43.932765,46.555516 51.26921,36.953076 51.26921,25.632946 51.26921,11.478676 39.79054,6e-6 25.632953,6e-6 Z"
     id="path4"
     inkscape:connector-curvature="0"
     style="fill:#828282" />
</svg>
